<svg xmlns="http://www.w3.org/2000/svg" xmlns:xlink="http://www.w3.org/1999/xlink" xmlns:lucid="lucid" width="1431.55" height="946.17"><g transform="translate(-180 -20)" lucid:page-tab-id="0_0"><path d="M0 0h1870.87v1322.84H0z" fill="#fff"/><g filter="url(#a)"><path d="M220 222a2 2 0 0 1 2-2h84a2 2 0 0 1 2 2v124a2 2 0 0 1-2 2h-84a2 2 0 0 1-2-2z" fill="#fff"/><path d="M276 261c2.5 0 4.6-.88 6.36-2.64 1.76-1.75 2.64-3.87 2.64-6.36 0-2.5-.88-4.6-2.64-6.36-1.75-1.76-3.87-2.64-6.36-2.64-2.5 0-4.6.88-6.36 2.64-1.76 1.75-2.64 3.87-2.64 6.36 0 2.5.88 4.6 2.64 6.36 1.75 1.76 3.87 2.64 6.36 2.64zm-24 0c2.5 0 4.6-.88 6.36-2.64 1.76-1.75 2.64-3.87 2.64-6.36 0-2.5-.88-4.6-2.64-6.36-1.75-1.76-3.87-2.64-6.36-2.64-2.5 0-4.6.88-6.36 2.64-1.76 1.75-2.64 3.87-2.64 6.36 0 2.5.88 4.6 2.64 6.36 1.75 1.76 3.87 2.64 6.36 2.64zm0 6c-7 0-21 3.5-21 10.5v7.5h42v-7.5c0-7-14-10.5-21-10.5zm24 0c-.87 0-1.86.06-2.9.15 3.47 2.52 5.9 5.9 5.9 10.35v7.5h18v-7.5c0-7-14-10.5-21-10.5zm0 0" fill="#757575"/><use xlink:href="#b" transform="matrix(1,0,0,1,220,301) translate(27.0134736328125 28.05751953125)"/></g><g filter="url(#a)"><path d="M220 402a2 2 0 0 1 2-2h84a2 2 0 0 1 2 2v124a2 2 0 0 1-2 2h-84a2 2 0 0 1-2-2z" fill="#fff"/><path d="M276 441c2.5 0 4.6-.88 6.36-2.64 1.76-1.75 2.64-3.87 2.64-6.36 0-2.5-.88-4.6-2.64-6.36-1.75-1.76-3.87-2.64-6.36-2.64-2.5 0-4.6.88-6.36 2.64-1.76 1.75-2.64 3.87-2.64 6.36 0 2.5.88 4.6 2.64 6.36 1.75 1.76 3.87 2.64 6.36 2.64zm-24 0c2.5 0 4.6-.88 6.36-2.64 1.76-1.75 2.64-3.87 2.64-6.36 0-2.5-.88-4.6-2.64-6.36-1.75-1.76-3.87-2.64-6.36-2.64-2.5 0-4.6.88-6.36 2.64-1.76 1.75-2.64 3.87-2.64 6.36 0 2.5.88 4.6 2.64 6.36 1.75 1.76 3.87 2.64 6.36 2.64zm0 6c-7 0-21 3.5-21 10.5v7.5h42v-7.5c0-7-14-10.5-21-10.5zm24 0c-.87 0-1.86.06-2.9.15 3.47 2.52 5.9 5.9 5.9 10.35v7.5h18v-7.5c0-7-14-10.5-21-10.5zm0 0" fill="#757575"/><use xlink:href="#c" transform="matrix(1,0,0,1,220,481) translate(20.489709960937503 28.05751953125)"/></g><g filter="url(#d)"><path d="M268 302a2 2 0 0 1 2-2h36a2 2 0 0 1 2 2v72a2 2 0 0 1-2 2h-36a2 2 0 0 1-2-2z" fill="#fff"/><path d="M293.45 316.77c1.13 0 2.1-.36 2.9-1.08.8-.72 1.2-1.6 1.2-2.6 0-1.03-.4-1.9-1.2-2.6-.8-.73-1.77-1.1-2.9-1.1s-2.1.37-2.9 1.1c-.8.7-1.2 1.57-1.2 2.6 0 1 .4 1.88 1.2 2.6.8.7 1.77 1.07 2.9 1.07zm-10.9 0c1.13 0 2.1-.36 2.9-1.08.8-.72 1.2-1.6 1.2-2.6 0-1.03-.4-1.9-1.2-2.6-.8-.73-1.77-1.1-2.9-1.1s-2.1.37-2.9 1.1c-.8.7-1.2 1.57-1.2 2.6 0 1 .4 1.88 1.2 2.6.8.7 1.77 1.07 2.9 1.07zm0 2.46c-3.2 0-9.55 1.43-9.55 4.3v3.06h19.1v-3.08c0-2.86-6.37-4.3-9.55-4.3zm10.9 0c-.4 0-.84.02-1.32.06 1.58 1.02 2.7 2.4 2.7 4.22v3.07H303v-3.08c0-2.86-6.36-4.3-9.55-4.3zm0 0" fill="#757575"/><use xlink:href="#e" transform="matrix(1,0,0,1,268,329) translate(0.7509907226562511 28.05751953125)"/></g><g filter="url(#a)"><path d="M360 302a2 2 0 0 1 2-2h84a2 2 0 0 1 2 2v124a2 2 0 0 1-2 2h-84a2 2 0 0 1-2-2z" fill="#fff"/><path d="M380 326h54v-6h-54c-1.65 0-3.07.6-4.25 1.76-1.17 1.17-1.75 2.58-1.75 4.24v33h-6v9h42v-9h-30zm57 6h-18c-.83 0-1.54.3-2.12.88-.58.58-.88 1.3-.88 2.12v30c0 .83.3 1.54.88 2.12.58.6 1.3.88 2.12.88h18c.82 0 1.54-.3 2.12-.88.58-.58.88-1.3.88-2.12v-30c0-.83-.3-1.54-.88-2.12-.58-.6-1.3-.88-2.12-.88zm-3 27h-12v-21h12z" fill="#757575"/><use xlink:href="#f" transform="matrix(1,0,0,1,360,381) translate(6.908301757812495 20.24462890625)"/><use xlink:href="#g" transform="matrix(1,0,0,1,360,381) translate(58.961685546874996 20.24462890625)"/><use xlink:href="#h" transform="matrix(1,0,0,1,360,381) translate(23.868785156250002 35.87041015625)"/></g><path d="M308.5 338h55.12" stroke="#3a414a" fill="none"/><path d="M308.5 338.5h-.5v-1h.5z" stroke="#3a414a" stroke-width=".05" fill="#3a414a"/><path d="M378.38 338l-14.26 4.63v-9.26z" stroke="#3a414a" fill="#3a414a"/><path d="M308.5 284H356a6 6 0 0 1 6 6v31.62" stroke="#3a414a" fill="none"/><path d="M308.5 284.5h-.5v-1h.5z" stroke="#3a414a" stroke-width=".05" fill="#3a414a"/><path d="M362 336.38l-4.63-14.26h9.26z" stroke="#3a414a" fill="#3a414a"/><path d="M308.5 464H328a6 6 0 0 0 6-6v-88a6 6 0 0 1 6-6h3.62" stroke="#3a414a" fill="none"/><path d="M308.5 464.5h-.5v-1h.5z" stroke="#3a414a" stroke-width=".05" fill="#3a414a"/><path d="M358.38 364l-14.26 4.63v-9.26z" stroke="#3a414a" fill="#3a414a"/><path d="M448.5 364h115.12" stroke="#3a414a" fill="none"/><path d="M448.5 364.5h-.5v-1h.5z" stroke="#3a414a" stroke-width=".05" fill="#3a414a"/><path d="M578.38 364l-14.26 4.63v-9.26z" stroke="#3a414a" fill="#3a414a"/><path d="M580 336h56v56h-56v-56z" stroke="#fff" stroke-opacity="0" fill="#693cc5"/><path d="M614.45 381.3l-1.33-.7c.75-1.4 1.25-2.67 1.7-4.22l1.43.42c-.47 1.65-1 3-1.8 4.5zm1.4-13.67c-.28-4.4-1.52-8.05-3.95-11.7l1.25-.8c2.6 3.86 3.9 7.76 4.18 12.4zm-9.86-18.02c-1.15-.84-2.2-1.47-3.46-2.1l.68-1.34c1.36.67 2.46 1.34 3.67 2.25zM612.1 369.52c-2.47-2.45-5.04-4.07-8.33-5.22l.46-1.42c3.5 1.23 6.25 2.94 8.88 5.56zM618.26 378.44c-.28-.75-.6-1.43-.93-2.13l1.33-.65c.4.77.7 1.43 1 2.24z" stroke="#fff" stroke-opacity="0" fill="#fff"/><path d="M614.02 381.66l-.47-1.4c1.88-.65 3.38-1.45 4.95-2.68l.92 1.18c-1.7 1.33-3.34 2.2-5.4 2.9zM590.3 363.63l-.35-1.45c1.74-.43 3.25-.63 5.05-.67l.04 1.5c-1.7.04-3.1.23-4.75.63zM602.53 358.88l-1.25-.82c1.15-1.87 2.36-3.3 4-4.77l1 1.12c-1.54 1.36-2.67 2.7-3.75 4.46zM613.64 350.02l-.5-1.4c1.17-.44 2.2-.74 3.45-1l.26 1.5c-1.15.23-2.12.5-3.22.9zM598.85 380.05c-1.28-2.97-1.87-5.7-1.92-8.95.03-1.25.17-2.32.47-3.53l.16-.8 1.5.3-.17.8c-.3 1.1-.4 2.08-.44 3.23.03 3.04.58 5.62 1.77 8.42z" stroke="#fff" stroke-opacity="0" fill="#fff"/><path d="M608 382.67c-10.3 0-18.67-8.38-18.67-18.66 0-.4 0-.74.04-1.15.5-7.96 5.64-14.46 13.3-16.74 5.03-1.5 9.88-.97 14.44 1.6 9 5.06 12.22 16.43 7.18 25.43-1.27 2.28-2.77 4.04-4.86 5.65-3.43 2.62-7.1 3.9-11.42 3.9zm0-35.85c-1.75 0-3.25.22-4.9.74-7.05 2.13-11.8 8.08-12.24 15.4 0 .38-.03.72-.03 1.05 0 9.47 7.7 17.17 17.17 17.17 1.98 0 3.66-.26 5.52-.93 1.9-.64 3.4-1.42 4.97-2.66 4.36-3.36 6.67-8.07 6.67-13.57 0-9.48-7.7-17.18-17.17-17.18z" stroke="#fff" stroke-opacity="0" fill="#fff"/><path d="M609.8 355.36c-1.8 0-3.3-1.48-3.3-3.3 0-1.83 1.5-3.3 3.3-3.3 1.84 0 3.32 1.47 3.32 3.3 0 1.83-1.47 3.3-3.3 3.3zm0-5.1c-.98 0-1.8.8-1.8 1.8s.82 1.8 1.8 1.8c1 0 1.83-.8 1.83-1.8s-.82-1.8-1.82-1.8zM599.63 365.78c-1.83 0-3.3-1.48-3.3-3.3 0-1.84 1.47-3.32 3.3-3.32 1.83 0 3.3 1.48 3.3 3.3 0 1.84-1.47 3.3-3.3 3.32zm0-5.12c-1 0-1.8.8-1.8 1.8s.8 1.82 1.8 1.82 1.8-.8 1.8-1.8v-.02c0-1-.8-1.82-1.8-1.82zM616.05 375.35c-1.83 0-3.3-1.48-3.32-3.3 0-1.83 1.48-3.3 3.3-3.32 1.83 0 3.3 1.48 3.32 3.3v.02c0 1.82-1.48 3.3-3.3 3.3zm0-5.1c-1 0-1.82.8-1.82 1.8s.8 1.8 1.8 1.8 1.82-.8 1.82-1.8-.8-1.8-1.8-1.8z" stroke="#fff" stroke-opacity="0" fill="#fff"/><use xlink:href="#i" transform="matrix(1,0,0,1,550,401) translate(17.29012345679012 17.77777777777778)"/><use xlink:href="#j" transform="matrix(1,0,0,1,550,401) translate(3.1851851851851833 44.44444444444444)"/><path d="M900 500h76v76h-76v-76z" stroke="#fff" stroke-opacity="0" fill="#693cc5"/><path d="M934.06 534.94v-9.13h1.84v4.07l2.5-4.06h2.03l-2.88 4.28 3.13 4.86h-2.2l-2.58-4.4v4.4h-1.84z" stroke="#fff" stroke-opacity="0" fill="#fff"/><path d="M951.6 533.92c-.5 0-.96.1-1.5.27l-9.92-15.1c.52-.72.8-1.5.8-2.4 0-2.23-1.82-4.05-4.07-4.05-.88 0-1.67.26-2.38.8-1.8 1.34-2.18 3.87-.83 5.66l-10 15.1c-.47-.2-.96-.28-1.5-.28-1.86 0-3.44 1.24-3.92 3.06-.53 2.14.75 4.38 2.92 4.94 2.18.56 4.4-.77 4.95-2.9h21.53c.5 1.78 2.06 3 3.94 3 2.25 0 4.04-1.8 4.04-4.04s-1.8-4.06-4.04-4.06zm-29.38 6.1c-1.13 0-2.03-.92-2.03-2.04s.9-2.03 2-2.03c1.14 0 2.04.9 2.04 2.03 0 1.12-.9 2.03-2.02 2.03zm14.7-25.35c1.12 0 2.02.92 2.02 2.03 0 1.12-.9 2.03-2.03 2.03-1.1 0-2-.9-2-2.03 0-1.12.9-2.03 2-2.03zm10.76 22.3h-21.53c-.15-.6-.4-1.1-.82-1.58l9.93-15.02c.53.26 1.06.38 1.65.38.62 0 1.14-.12 1.7-.38l9.9 15c-.4.5-.67 1-.82 1.63zm3.94 3.04c-1.13 0-2.03-.9-2.03-2.02s.9-2.03 2-2.03c1.14 0 2.04.9 2.04 2.03 0 1.12-.9 2.03-2.02 2.03zM963.3 553.02l-.7.6c-2.27 1.75-5.37 1.75-7.64 0l-1.37-1.2c-3.1-2.42-7.3-2.42-10.4 0l-1.4 1.2c-2.3 1.75-5.38 1.75-7.66 0l-1.37-1.2c-3.1-2.42-7.3-2.42-10.38 0l-1.43 1.2c-2.28 1.75-5.32 1.75-7.64 0l-.66-.57v2.6c3.1 1.92 6.83 1.72 9.67-.5l1.42-1.2c2.28-1.75 5.37-1.75 7.65 0l1.37 1.2c3.1 2.4 7.3 2.4 10.4 0l1.4-1.2c2.28-1.75 5.37-1.75 7.65 0l1.42 1.2c1.52 1.22 3.2 1.8 5.12 1.78 1.72.02 3.13-.4 4.55-1.32v-2.55z" stroke="#fff" stroke-opacity="0" fill="#fff"/><path d="M963.3 559.45l-.7.58c-2.27 1.76-5.37 1.76-7.64 0l-1.37-1.17c-3.1-2.44-7.3-2.44-10.4 0l-1.4 1.17c-2.3 1.76-5.38 1.76-7.66 0l-1.37-1.17c-3.1-2.44-7.3-2.44-10.38 0l-1.43 1.17c-2.28 1.76-5.32 1.76-7.64 0l-.66-.57v2.6c3.1 1.94 6.83 1.74 9.67-.5l1.42-1.17c2.28-1.78 5.37-1.78 7.65 0l1.37 1.16c3.1 2.43 7.3 2.43 10.4 0l1.4-1.17c2.28-1.78 5.37-1.78 7.65 0l1.42 1.16c1.52 1.24 3.2 1.8 5.12 1.8 1.72 0 3.13-.4 4.55-1.32v-2.58zM963.3 545.77l-.7.58c-2.27 1.77-5.37 1.77-7.64 0l-1.37-1.18c-3.1-2.4-7.3-2.4-10.4 0l-1.4 1.18c-2.3 1.77-5.38 1.77-7.66 0l-1.37-1.18c-3.1-2.4-7.3-2.4-10.38 0l-1.43 1.18c-2.28 1.77-5.37 1.77-7.64 0l-.66-.57v2.6c3.1 1.94 6.83 1.74 9.67-.5l1.42-1.16c2.28-1.78 5.37-1.78 7.65 0l1.37 1.16c3.1 2.43 7.3 2.43 10.4 0l1.4-1.16c2.28-1.78 5.37-1.78 7.65 0l1.42 1.16c1.52 1.22 3.2 1.8 5.12 1.77 1.72.02 3.13-.4 4.55-1.3v-2.57z" stroke="#fff" stroke-opacity="0" fill="#fff"/><use xlink:href="#k" transform="matrix(1,0,0,1,870,585) translate(18.648148148148152 17.77777777777778)"/><path d="M1220 359.64v48.48c0 7.32-12.24 11.28-24.48 11.28-12.12 0-24.36-3.96-24.36-11.28v-48.48c0-7.44 12.24-11.28 24.36-11.28 12.24 0 24.48 3.84 24.48 11.28zm-104.28 54.84h53.64V420h-53.64c-8.64 0-15.72-7.08-15.72-15.72v-88.56c0-8.64 7.08-15.72 15.72-15.72h88.32c8.64 0 15.6 7.08 15.6 15.72v34.68h-5.4v-34.68c0-5.64-4.56-10.2-10.2-10.2h-88.32c-5.64 0-10.32 4.56-10.32 10.2v88.56c0 5.64 4.68 10.2 10.32 10.2zm98.88-37.92v-9.6c-4.8 2.52-11.88 3.84-19.08 3.84-7.08 0-14.28-1.32-18.96-3.84v9.6c0 1.68 6.48 5.76 18.96 5.76 12.6 0 19.08-4.08 19.08-5.76zm0 16.68v-9.36c-4.8 2.52-11.88 3.96-19.08 3.96-7.08 0-14.28-1.44-18.96-3.96v9.36c0 1.68 6.48 5.76 18.96 5.76 12.6 0 19.08-4.08 19.08-5.76zm0 14.88v-7.56c-4.8 2.52-11.88 3.84-19.08 3.84-7.08 0-14.28-1.32-18.96-3.84v7.56c0 1.68 6.48 5.76 18.96 5.76 12.6 0 19.08-4.08 19.08-5.76zm-38.04-48.48c0 1.68 6.48 5.76 18.96 5.76 12.6 0 19.08-4.08 19.08-5.76 0-1.8-6.48-5.76-19.08-5.76-12.48 0-18.96 3.96-18.96 5.76zm-33.96-11.52c1.44 1.92 2.16 4.56 2.16 8.04 0 3.6-.72 6.24-2.04 8.04-1.44 1.8-3.36 2.76-6 2.76h-6.6v-21.48h6.48c2.64 0 4.68.84 6 2.64zm-19.2 10.2l4.32 8.64h-4.44l-3.72-8.04h-1.68v8.04h-4.2v-21.48h6.72c1.92 0 3.48.6 4.56 1.8 1.08 1.2 1.68 2.88 1.68 4.92 0 1.44-.24 2.76-.84 3.72-.6 1.08-1.32 1.92-2.4 2.4zm26.76-22.44h-4.2v-10.44c0-.84-.12-1.56-.36-1.92-.24-.48-.6-.6-1.2-.6s-1.2.24-2.04.72v12.24h-4.2v-10.44c0-.84-.12-1.56-.36-1.92-.24-.48-.6-.6-1.2-.6s-1.2.24-2.04.72v12.24h-4.2v-15.84h3.48l.36 1.44c1.68-1.2 3.24-1.8 4.68-1.8 1.44 0 2.4.6 3 1.92 1.68-1.32 3.24-1.92 4.68-1.92 1.2 0 2.16.36 2.76 1.2.6.72.84 1.92.84 3.36zm-21.84 0h-4.68l-1.2-5.04h-5.04l-1.08 5.04h-4.56l5.88-21.48h4.8zm62.76-14.04c1.2 1.44 1.68 3.48 1.68 6.12s-.48 4.8-1.68 6.24c-1.08 1.44-2.64 2.16-4.68 2.16-2.04 0-3.6-.72-4.8-2.16-1.08-1.44-1.68-3.6-1.68-6.24s.6-4.68 1.68-6.12c1.2-1.44 2.76-2.16 4.8-2.16s3.6.72 4.68 2.16zm-38.64 42.12c1.08 0 1.8-.24 2.28-.72.48-.48.84-1.2.84-2.04 0-.6-.24-1.2-.6-1.56-.36-.48-.96-.96-1.8-1.44l-1.68-.84c-1.56-.84-2.64-1.68-3.24-2.64-.72-.96-1.08-2.16-1.08-3.48 0-1.32.36-2.4.96-3.36.48-.96 1.32-1.68 2.28-2.16 1.08-.48 2.16-.72 3.48-.72 1.68 0 3.24.36 4.92 1.08v3.36c-1.68-.72-3.24-.96-4.44-.96-.84 0-1.56.24-2.04.6-.48.48-.72 1.08-.72 1.8s.12 1.2.36 1.56c.36.48.96.96 1.92 1.44l1.68.84c1.08.6 1.92 1.2 2.52 1.8.6.6 1.08 1.2 1.44 1.92.24.72.36 1.56.36 2.52 0 2.04-.6 3.6-1.8 4.68-1.32 1.2-3.12 1.8-5.28 1.8-.96 0-1.92-.12-2.88-.36s-1.8-.6-2.52-.96v-3.24c.84.36 1.68.6 2.64.72.96.24 1.8.36 2.4.36zm55.56-28.08h-4.32v-10.44c0-.84-.12-1.56-.36-1.92-.24-.48-.6-.6-1.2-.6-.72 0-1.32.24-2.16.72v12.24h-4.2v-15.84h3.48l.36 1.44c1.56-1.2 3.24-1.8 4.68-1.8 1.2 0 2.16.36 2.76 1.2.6.72.96 1.92.96 3.36zm-48.6-.12c-.72.36-1.32.6-2.04.6-1.32 0-2.28-.48-3-1.32-.72-.84-1.2-1.92-1.2-3.48s.48-2.76 1.44-3.6c.84-.96 2.16-1.32 3.6-1.32.72 0 1.44.12 2.4.36v-1.44c0-1.08-.12-1.8-.36-2.16-.24-.48-.84-.6-1.56-.6-1.32 0-2.76.24-4.56.96v-2.88c.6-.36 1.32-.6 2.28-.84 1.08-.24 2.04-.36 3-.36 1.8 0 3.12.36 3.96 1.2.72.84 1.2 2.16 1.2 3.96v11.04h-3.36l-.36-1.44c-.36.6-.84 1.08-1.44 1.32zm7.68.12v-3l6.36-9.6h-6.12v-3.24h10.56v3l-6.36 9.6h6.48v3.24zm-26.76 20.04c0-2.52-.36-4.32-.96-5.4-.72-1.2-1.68-1.8-3.12-1.8h-1.8v14.88h1.8c1.44 0 2.4-.6 3-1.68.72-1.2 1.08-3 1.08-5.4zm48.24-27.96c0-1.68-.24-3-.48-3.84-.36-.84-.96-1.2-1.68-1.2-.84 0-1.32.36-1.68 1.2-.36.84-.48 2.16-.48 3.84 0 1.8.12 3.12.48 3.96.36.72.84 1.2 1.68 1.2.72 0 1.32-.48 1.68-1.2.24-.84.48-2.16.48-3.96zm-66.24 24.24c0-1.2-.12-2.04-.6-2.64-.36-.6-1.08-.84-1.8-.84h-2.04v7.08h2.04c.72 0 1.44-.36 1.8-.96.48-.6.6-1.44.6-2.64zm-.48-24.48l-1.92-8.88-1.92 8.88zm38.76 4.68v-3.12c-.48-.12-.96-.24-1.56-.24-.6 0-1.08.24-1.44.6-.24.36-.48.96-.48 1.68 0 .6.12 1.08.48 1.44.24.36.6.6.96.6.72 0 1.44-.36 2.04-.96z" stroke="#000" stroke-opacity="0" fill="#2e27ad"/><path d="M1115.32 303.1h89.77c8.4 0 12.64 4.23 12.64 12.66v88.7c0 8.43-4.25 12.65-12.65 12.65h-89.78c-8.4 0-12.66-4.2-12.66-12.65v-88.7c0-8.42 4.26-12.64 12.66-12.64z" stroke="#000" stroke-opacity="0" fill-opacity="0"/><use xlink:href="#l" transform="matrix(1,0,0,1,1070,429) translate(6.124999999999986 14.4)"/><use xlink:href="#m" transform="matrix(1,0,0,1,1070,429) translate(65.02499999999999 14.4)"/><use xlink:href="#n" transform="matrix(1,0,0,1,1070,429) translate(135.97500000000002 14.4)"/><use xlink:href="#o" transform="matrix(1,0,0,1,1070,429) translate(56 36)"/><path d="M700 300h120v120H700V300z" stroke="#fff" stroke-opacity="0" fill="#d6242d"/><path d="M764.64 389.42h-41.7c-.9 0-1.63-.72-1.63-1.63.02-.3.06-.53.24-.77L742 350.5c.26-.5.75-.82 1.3-.82.58 0 1.07.24 1.38.7l5.76 8.84c.3.47.36 1.07.1 1.6l-8.33 15.96H760c.64 0 1.18.36 1.45.9l4.63 9.63c.27.53.22 1.08-.1 1.6-.35.4-.8.56-1.34.52zm-39.06-3.22h36.5l-3.1-6.4h-19.42c-.58 0-1.08-.28-1.4-.75-.26-.52-.26-1.12 0-1.6l9.13-17.44-3.83-5.6zM780.7 389.43h-10.04c-.62 0-1.13-.32-1.42-.85l-23.17-42c-.25-.43-.25-.96 0-1.4l3.75-8.36c.26-.6.77-.9 1.35-.97.62-.05 1.17.27 1.5.8l29.42 50.42c.43.8.17 1.77-.6 2.2-.25.16-.5.22-.8.22zm-9.13-3.2h6.4l-26.5-45.4-2.23 4.9zM797.1 389.4H786.7c-.6 0-1.1-.3-1.4-.8l-31.9-55.6c-.3-.53-.3-1.1 0-1.58.28-.53.78-.83 1.38-.83h9.82c.6 0 1.1.3 1.4.76L798.46 387c.46.76.18 1.76-.6 2.17-.22.18-.5.24-.76.24zm-9.47-3.17h6.64l-30.56-52.46h-6.1z" stroke="#fff" stroke-opacity="0" fill="#fff"/><use xlink:href="#p" transform="matrix(1,0,0,1,670,429) translate(25.709876543209887 17.77777777777778)"/><use xlink:href="#q" transform="matrix(1,0,0,1,670,429) translate(81.6358024691358 17.77777777777778)"/><path d="M636.5 364h47.12" stroke="#3a414a" fill="none"/><path d="M636.5 364.5h-.5v-1h.5z" stroke="#3a414a" stroke-width=".05" fill="#3a414a"/><path d="M698.38 364l-14.26 4.63v-9.26z" stroke="#3a414a" fill="#3a414a"/><path d="M1099.5 360h-4.87m-4.88 0h-9.74m-4.86 0h-9.75m-4.88 0h-9.74m-4.88 0h-9.74m-4.88 0h-9.74m-4.87 0h-9.75m-4.87 0h-9.75m-4.87 0h-9.74m-4.9 0h-9.73m-4.87 0h-9.75m-4.87 0h-9.75m-4.87 0h-9.74m-4.88 0h-9.74m-4.87 0h-9.75m-4.87 0h-9.74m-4.87 0h-9.75m-4.88 0h-9.74m-4.87 0h-4.88" stroke="#3a414a" fill="none"/><path d="M1100 360.5h-.5v-1h.5z" stroke="#3a414a" stroke-width=".05" fill="#3a414a"/><path d="M821.62 360l14.26-4.63v9.26z" stroke="#3a414a" fill="#3a414a"/><path d="M820.5 360H854a6 6 0 0 1 6 6v166a6 6 0 0 0 6 6h17.62" stroke="#3a414a" fill="none"/><path d="M820.5 360.5h-.5v-1h.5z" stroke="#3a414a" stroke-width=".05" fill="#3a414a"/><path d="M898.38 538l-14.26 4.63v-9.26z" stroke="#3a414a" fill="#3a414a"/><path d="M994.5 538h72.5a1 1 0 0 1 1 1 1 1 0 0 0 1 1h85a6 6 0 0 0 6-6v-95.5" stroke="#3a414a" stroke-width="2" fill="none"/><path d="M979.24 538l14.26-4.63v9.26zM1160 423.24l4.63 14.26h-9.27z" stroke="#3a414a" stroke-width="2" fill="#3a414a"/><g filter="url(#d)"><path d="M280 482a2 2 0 0 1 2-2h36a2 2 0 0 1 2 2v72a2 2 0 0 1-2 2h-36a2 2 0 0 1-2-2z" fill="#fff"/><path d="M305.45 496.77c1.13 0 2.1-.36 2.9-1.08.8-.72 1.2-1.6 1.2-2.6 0-1.03-.4-1.9-1.2-2.6-.8-.73-1.77-1.1-2.9-1.1s-2.1.37-2.9 1.1c-.8.7-1.2 1.57-1.2 2.6 0 1 .4 1.88 1.2 2.6.8.7 1.77 1.07 2.9 1.07zm-10.9 0c1.13 0 2.1-.36 2.9-1.08.8-.72 1.2-1.6 1.2-2.6 0-1.03-.4-1.9-1.2-2.6-.8-.73-1.77-1.1-2.9-1.1s-2.1.37-2.9 1.1c-.8.7-1.2 1.57-1.2 2.6 0 1 .4 1.88 1.2 2.6.8.7 1.77 1.07 2.9 1.07zm0 2.46c-3.2 0-9.55 1.43-9.55 4.3v3.06h19.1v-3.08c0-2.86-6.37-4.3-9.55-4.3zm10.9 0c-.4 0-.84.02-1.32.06 1.58 1.02 2.7 2.4 2.7 4.22v3.07H315v-3.08c0-2.86-6.36-4.3-9.55-4.3zm0 0" fill="#757575"/><use xlink:href="#e" transform="matrix(1,0,0,1,280,509) translate(0.7509907226562511 28.05751953125)"/></g><path d="M320.5 518H398a6 6 0 0 0 6-6v-67.62" stroke="#3a414a" fill="none"/><path d="M320.5 518.5h-.5v-1h.5z" stroke="#3a414a" stroke-width=".05" fill="#3a414a"/><path d="M404 429.62l4.63 14.26h-9.26z" stroke="#3a414a" fill="#3a414a"/><path d="M1303.94 587.37H1291c-.65 0-1.26-.38-1.52-.98l-18.14-38.9h-7.32c-.9 0-1.7-.77-1.7-1.7v-11.2c0-.94.8-1.7 1.7-1.7h16.15c.7 0 1.26.38 1.52.98l18.1 38.9h4.14c.9 0 1.7.75 1.7 1.73v11.18c0 .93-.8 1.7-1.7 1.7zm-11.9-3.43h10.17v-7.74h-3.5c-.64 0-1.25-.38-1.5-.98l-18.07-38.94h-13.38v7.8h6.67c.7 0 1.3.37 1.56.97z" stroke="#fff" stroke-opacity="0" fill="#d86613"/><path d="M1268.8 587.37H1255c-.9 0-1.68-.78-1.68-1.72 0-.27.05-.47.17-.7l14.45-30.27c.3-.6.87-.98 1.53-.98.67 0 1.24.34 1.54.94l6.9 14.3c.23.48.23 1 0 1.46l-7.55 16c-.3.6-.87.97-1.54.97zm-11.1-3.4h10.02l6.8-14.28-5.1-10.38z" stroke="#fff" stroke-opacity="0" fill="#d86613"/><path d="M1280 603.33c-22.08 0-40-17.92-40-40s17.92-40 40-40 40 17.92 40 40-17.92 40-40 40zm0-76.56c-20.24 0-36.56 16.32-36.56 36.56 0 20.24 16.32 36.56 36.56 36.56 20.24 0 36.56-16.33 36.56-36.57 0-20.24-16.32-36.56-36.56-36.56z" stroke="#fff" stroke-opacity="0" fill="#d86613"/><use xlink:href="#r" transform="matrix(1,0,0,1,1210,612.3333333333333) translate(29.907407407407405 17.77777777777778)"/><use xlink:href="#s" transform="matrix(1,0,0,1,1210,612.3333333333333) translate(27.469135802469133 44.44444444444444)"/><path d="M643.98 120.82l-7.98 4V195l7.98 3.98 19.54-39.1-19.54-39.08z" fill="#8c3123"/><path d="M685.48 188.9L643.96 199V120.8l41.52 10.08 19.63 29.08-19.62 28.92z" fill="#e05243"/><path d="M685.5 188.9l41.53 10.1 7.16-38.08-7.17-40.1-41.53 10.08v58z" fill="#8c3123"/><path d="M727 120.82l8 4V195l-8 3.98v-78.18z" fill="#e05243"/><path d="M667.38 172.84l18.12 2.33 14.35-15.14-14.35-15.14-18.12 2.26v25.68z" fill="#8c3123"/><path d="M703.6 134.74l-18.1 3.3-18.12-3.3 18.1-34.74 18.12 34.74z" fill="#5e1f18"/><path d="M703.6 185.25l-18.1-3.35-18.12 3.35 18.1 34.74 18.12-34.75z" fill="#f2b0a9"/><path d="M703.6 134.75l-18.1-4.48V100l18.1 9.07v25.68z" fill="#e05243"/><path d="M667.38 134.75l18.1-4.48V100l-18.1 9.07v25.68z" fill="#8c3123"/><path d="M685.5 220l18.1-9.08v-25.68l-18.1 4.48V220z" fill="#e05243"/><path d="M685.5 220l-18.12-9.08v-25.68l18.1 4.48V220z" fill="#8c3123"/><path d="M703.6 172.84l-18.1 2.33V144.9l18.1 2.26v25.68z" fill="#e05243"/><use xlink:href="#i" transform="matrix(1,0,0,1,636,220) translate(8.79012345679012 17.77777777777778)"/><use xlink:href="#t" transform="matrix(1,0,0,1,636,220) translate(35.91975308641975 44.44444444444444)"/><path d="M619.62 163.97H614a6 6 0 0 0-6 6v149.65" stroke="#3a414a" fill="none"/><path d="M634.38 163.97l-14.26 4.64v-9.26zM608 334.38l-4.63-14.26h9.26z" stroke="#3a414a" fill="#3a414a"/><path d="M1577.84 164.96l-52.44-52.8c-3-2.88-7.68-2.88-10.44 0l-11.52 11.28 13.68 13.68c.84-.36 2.04-.6 3.24-.6 5.04 0 9.12 4.08 9.12 9.12 0 1.2-.24 2.4-.6 3.36l13.32 13.32c.84-.36 2.16-.6 3.24-.6 5.04 0 9.24 4.08 9.24 9.12 0 5.04-4.2 9.24-9.24 9.24s-9.12-4.2-9.12-9.24c0-1.2.24-2.4.6-3.24l-12.48-12.48v32.64c3 1.44 5.04 4.68 5.04 8.04 0 5.04-4.08 9.12-9.12 9.12-5.04 0-9.24-4.08-9.24-9.12 0-3.96 2.4-7.2 6-8.64v-33.24c-3.6-1.08-6-4.68-6-8.52 0-1.2.36-2.4.6-3.24l-13.56-13.68-35.88 36.48c-3 2.88-3 7.68 0 10.32l52.44 52.44c3 3 7.68 3 10.32 0l52.44-52.44c3.36-2.88 3.36-7.68.36-10.32z" stroke="#000" stroke-opacity="0" fill="#0078d7"/><use xlink:href="#u" transform="matrix(1,0,0,1,1430,239) translate(36.599999999999994 14.4)"/><use xlink:href="#v" transform="matrix(1,0,0,1,1430,239) translate(64.55 14.4)"/><path d="M1458.58 169.76h-3m-12 0h-6m-12 0h-6m-12 0h-6m-12 0h-6m-12 0h-6m-12 0h-6m-12 0h-5.98m-12 0h-6m-12 0h-6m-12 0h-6m-12 0h-6m-12 0h-6m-12 0h-6m-12 0h-6m-12 0h-6m-11.98 0h-6m-12 0h-6m-12 0h-6m-12 0h-6m-12 0h-6m-12 0h-6m-12 0h-6m-12 0h-6m-11.98 0h-6m-12 0h-6m-12 0h-6m-12 0h-6m-12 0h-6m-12 0h-6m-12 0h-6m-12 0h-6m-12 0h-6m-11.98 0h-6m-12 0h-6m-12 0h-6m-12 0h-6m-12 0h-3l-.93.07-.92.22-.86.36-.8.5-.72.62-.6.7-.5.82-.36.87-.22.92-.07.94v2.88m0 11.5v5.77m0 11.52v5.76m0 11.5v5.77m0 11.5v5.77m0 11.5V265m0 11.5v2.88" stroke="#008a0e" stroke-width="3" fill="none"/><path d="M1460.03 170.06l.13 1.2h-1.62v-3h1.77z" stroke="#008a0e" stroke-width=".05" fill="#008a0e"/><path d="M786.67 295.15l-4.64-14.27h9.27z" stroke="#008a0e" stroke-width="3" fill="#008a0e"/><path d="M760 299.5V176a6 6 0 0 0-6-6h-2.63" stroke="#3a414a" fill="none"/><path d="M760.5 300h-1v-.5h1z" stroke="#3a414a" stroke-width=".05" fill="#3a414a"/><path d="M736.6 170l14.27-4.63v9.26z" stroke="#3a414a" fill="#3a414a"/><path d="M1571.12 327.3c-12.12-12.78-36.72-7.5-51 12.9-17.88-21.72-39.6-25.68-51.72-12.9-12.48 13.6-9.24 29.22-1.8 42.1l12.48-.4h6.48l12-25.26c.36-1.42 5.76-3.96 7.2-3.55 4.68 0 4.68 6.08 4.92 7.8l.36 37.44 4.32-12.48c.36-1.32 1.44-3.55 2.88-3.55h38.4c1.8 0 2.16.42 2.16 2.24 0 1.73 2.52 8.22.72 8.22l-33.84-.4-10.68 21.7c-1.08 1.83-5.76 2.14-6.72 2.14-5.76-.7-6.12-7.8-6.48-9.64l-.36-30.34-5.4 14.3c-.36 1.02-1.68 1.43-2.76 1.73h-18.96c16.44 21.82 36.72 38.96 46.44 42.1 13.92-5.37 84.84-57.72 51.36-94.14z" stroke="#000" stroke-opacity="0" fill="#0078d7"/><use xlink:href="#w" transform="matrix(1,0,0,1,1430,430.4578786556089) translate(19.64999999999999 14.4)"/><use xlink:href="#x" transform="matrix(1,0,0,1,1430,430.4578786556089) translate(76.55 14.4)"/><path d="M1239.5 563.33H992.38" stroke="#3a414a" fill="none"/><path d="M1240 563.33l.02.5h-.53v-1h.53z" stroke="#3a414a" stroke-width=".05" fill="#3a414a"/><path d="M977.62 563.33l14.26-4.63v9.27z" stroke="#3a414a" fill="#3a414a"/><path d="M1280 502.7v-3m0-12.12v-6.06m0-12.1v-6.06m0-12.1v-6.07m0-12.12v-6.05m0-12.1v-6.06m0-12.1v-6.07m0-12.1v-6.06m0-12.1v-6.07m0-12.1v-6.06m0-12.1v-6.06m0-12.1v-6.06m0-12.1v-6.06m0-12.1v-6.07m0-12.1v-6.06m0-12.12v-6.06m0-12.1v-6.06m0-12.1v-6.06m0-12.1v-3.04l.07-.94.22-.9.35-.88.5-.8.6-.72.72-.6.8-.5.88-.37.9-.22.95-.07h2.88m11.5 0h5.75m11.5 0h5.76m11.5 0h5.75m11.5 0h5.76m11.5 0h5.76m11.5 0h5.76m11.5 0h5.76m11.5 0h5.76m11.5 0h5.76m11.5 0h2.88" stroke="#008a0e" stroke-width="3" fill="none"/><path d="M1280 518.48l-4.63-14.27h9.27z" stroke="#008a0e" stroke-width="3" fill="#008a0e"/><path d="M1460.03 170.06l.13 1.2h-1.62v-3h1.77z" stroke="#008a0e" stroke-width=".05" fill="#008a0e"/><path d="M934.93 782.68l-18.36 7.05V760l18.36 6.54z" stroke="#000" stroke-opacity="0" stroke-width="3" fill="#804998"/><path d="M899.88 764.9v19.5l13.75 5.26V760zm1.5 18.1l-.75-.25V766.6l.76-.22.77-.2.84-.25v17.56l-.83-.24zm3.45 1.06l-.94-.27v-18.13l.93-.27 1-.27 1.06-.3v19.88l-1.07-.32zm4.42 1.4l-1.22-.4v-20.55l1.23-.35 1.3-.35 1.4-.42v22.9l-1.4-.44z" stroke="#000" stroke-opacity="0" stroke-width="3" fill="#68217a"/><path d="M977.9 782.68l-18.36 7.05V760l18.36 6.54z" stroke="#000" stroke-opacity="0" stroke-width="3" fill="#804998"/><path d="M942.84 764.9v19.5l13.75 5.26V760zm1.5 18.1l-.74-.25V766.6l.74-.22.8-.2.84-.25v17.56l-.84-.24zm3.45 1.06l-.94-.27v-18.13l.93-.27 1-.27 1.06-.3v19.88l-1.06-.32zm4.4 1.4l-1.2-.4v-20.55l1.2-.35 1.3-.35 1.42-.42v22.9l-1.4-.44z" stroke="#000" stroke-opacity="0" stroke-width="3" fill="#68217a"/><path d="M934.93 841.96L916.57 849v-29.73l18.36 6.54z" stroke="#000" stroke-opacity="0" stroke-width="3" fill="#804998"/><path d="M899.88 824.17v19.52l13.75 5.24v-29.67zm1.5 18.1l-.75-.24v-16.17l.76-.2.77-.2.84-.25v17.57l-.83-.24zm3.45 1.06l-.94-.26v-18.13l.93-.27 1-.26 1.06-.3V844l-1.07-.34zm4.42 1.4l-1.22-.4V823.8l1.23-.35 1.3-.36 1.4-.4v22.9l-1.4-.46z" stroke="#000" stroke-opacity="0" stroke-width="3" fill="#68217a"/><path d="M977.9 841.96L959.53 849v-29.73l18.36 6.54z" stroke="#000" stroke-opacity="0" stroke-width="3" fill="#804998"/><path d="M942.84 824.17v19.52l13.75 5.24v-29.67zm1.5 18.1l-.74-.24v-16.17l.74-.2.8-.2.84-.25v17.57l-.84-.24zm3.45 1.06l-.94-.26v-18.13l.93-.27 1-.26 1.06-.3V844l-1.06-.34zm4.4 1.4l-1.2-.4V823.8l1.2-.35 1.3-.36 1.42-.4v22.9l-1.4-.46z" stroke="#000" stroke-opacity="0" stroke-width="3" fill="#68217a"/><path d="M957.8 812.23l-18.36 7.04v-29.72l18.35 6.54z" stroke="#000" stroke-opacity="0" stroke-width="3" fill="#804998"/><path d="M922.74 794.45v19.5l13.75 5.26v-29.65zm1.5 18.1l-.74-.25v-16.16l.74-.2.8-.22.84-.24v17.56l-.84-.23zm3.45 1.06l-.94-.26v-18.12l.93-.27 1-.27 1.06-.3v19.88l-1.06-.33zm4.4 1.4l-1.2-.38v-20.56l1.2-.35 1.3-.35 1.42-.42v22.9l-1.4-.44z" stroke="#000" stroke-opacity="0" stroke-width="3" fill="#68217a"/><path d="M915.05 812.23l-18.36 7.04v-29.72l18.35 6.54z" stroke="#000" stroke-opacity="0" stroke-width="3" fill="#804998"/><path d="M880 794.45v19.5l13.75 5.26v-29.65zm1.5 18.1l-.74-.25v-16.16l.74-.2.8-.22.84-.24v17.56l-.84-.23zm3.45 1.06l-.94-.26v-18.12l.95-.27 1-.27 1.06-.3v19.88l-1.05-.33zm4.4 1.4l-1.2-.38v-20.56l1.2-.35 1.32-.35 1.4-.42v22.9l-1.4-.44z" stroke="#000" stroke-opacity="0" stroke-width="3" fill="#68217a"/><path d="M1000 812.23l-18.36 7.04v-29.72l18.36 6.54z" stroke="#000" stroke-opacity="0" stroke-width="3" fill="#804998"/><path d="M964.95 794.45v19.5l13.75 5.26v-29.65zm1.5 18.1l-.74-.25v-16.16l.75-.2.8-.22.83-.24v17.56l-.83-.23zm3.45 1.06l-.94-.26v-18.12l.94-.27 1-.27 1.06-.3v19.88l-1.06-.33zm4.4 1.4l-1.2-.38v-20.56l1.2-.35 1.32-.35 1.4-.42v22.9l-1.4-.44z" stroke="#000" stroke-opacity="0" stroke-width="3" fill="#68217a"/><path d="M912 761.6l5.8.1 15.97 6.2 10.54-2.42 11.25-3.87 5.33.1 15.62 5.76.6 14.46 5.55 10.42 15.74 4.82.7 13.6-16.2 6.37-4.98.78-1.2 9.9.25 12.84-16.45 6.62-5.2.26-11.72-4.4-9.94-2.3-15.98 6.7-4.85.18-12.2-4.48.13-18.34-3.32-7.23-5.1.1-11.58-5.44v-16.17l11.6-4.48 6.27.43 2.72-9.12-.24-17.22z" stroke="#000" stroke-opacity="0" stroke-width="0" fill-opacity="0"/><use xlink:href="#y" transform="matrix(1,0,0,1,850,858) translate(20.599999999999994 14.4)"/><use xlink:href="#z" transform="matrix(1,0,0,1,850,858) translate(102.5 14.4)"/><path d="M640 798.9V770l-33 28.65h-.84V770l-33 28.65v-60.18c0-4.9-11.28-10.15-26.04-10.15-14.64 0-27.12 5-27.12 10.15v109.25h120V798.9zm-92.88-55.54c-10.68 0-19.32-2.62-19.32-5.5 0-2.85 8.64-5.48 19.32-5.48 10.8 0 19.44 2.27 19.44 5.5 0 2.86-8.64 5.48-19.44 5.48zm56.76 85.26h-13.32v-13.25h13.32v13.25zm-23.16 0H567.4v-13.25h13.32v13.25zm33.48 0v-13.25h13.32v13.25H614.2z" stroke="#000" stroke-opacity="0" fill="#006fd4"/><use xlink:href="#A" transform="matrix(1,0,0,1,490,856.7247983014862) translate(25.07499999999999 14.4)"/><use xlink:href="#B" transform="matrix(1,0,0,1,490,856.7247983014862) translate(93.975 14.4)"/><path d="M656.38 804.5h207.24" stroke="#3a414a" fill="none"/><path d="M641.62 804.5l14.26-4.63v9.26zM878.38 804.5l-14.26 4.63v-9.26z" stroke="#3a414a" fill="#3a414a"/><path d="M940 750.08v-157.7" stroke="#3a414a" fill="none"/><path d="M940 764.85l-4.63-14.27h9.26zM940 577.62l4.63 14.26h-9.26z" stroke="#3a414a" fill="#3a414a"/><path d="M220 146a6 6 0 0 1 6-6h228a6 6 0 0 1 6 6v48a6 6 0 0 1-6 6H226a6 6 0 0 1-6-6z" stroke="#000" stroke-opacity="0" fill="#fff" fill-opacity="0"/><use xlink:href="#C" transform="matrix(1,0,0,1,225,145) translate(86.0493827160494 30.27777777777778)"/><path d="M570 46a6 6 0 0 1 6-6h228a6 6 0 0 1 6 6v48a6 6 0 0 1-6 6H576a6 6 0 0 1-6-6z" stroke="#000" stroke-opacity="0" fill="#fff" fill-opacity="0"/><use xlink:href="#D" transform="matrix(1,0,0,1,575,45) translate(70.61728395061728 30.27777777777778)"/><path d="M488 674.32a6 6 0 0 1 6-6h228a6 6 0 0 1 6 6v48a6 6 0 0 1-6 6H494a6 6 0 0 1-6-6z" stroke="#000" stroke-opacity="0" fill="#fff" fill-opacity="0"/><g><use xlink:href="#E" transform="matrix(1,0,0,1,493,673.3192781316349) translate(45.987654320987644 30.27777777777778)"/><use xlink:href="#F" transform="matrix(1,0,0,1,493,673.3192781316349) translate(89.07407407407406 30.27777777777778)"/></g><path d="M860 236a6 6 0 0 1 6-6h228a6 6 0 0 1 6 6v48a6 6 0 0 1-6 6H866a6 6 0 0 1-6-6z" stroke="#000" stroke-opacity="0" fill="#fff" fill-opacity="0"/><g><use xlink:href="#G" transform="matrix(1,0,0,1,865,235) translate(71.79012345679013 30.27777777777778)"/></g><path d="M1486.22 200.72h-5.02m-6.7 0h-10.04m-6.7 0h-10.04m-6.7 0H1436l-.94.07-.9.2-.88.37-.8.5-.72.6-.6.72-.5.8-.37.87-.23.9-.07.95v4.55m0 6.07v9.1m0 6.08v9.1m0 6.07v9.1m0 6.06v9.1m0 6.08v9.1m0 6.07v9.12m0 6.06v9.1m0 6.08v9.1m0 6.07v9.1m0 6.08v9.1m0 6.08v9.1m0 6.07v9.1m0 6.08v9.1m0 6.07v9.1m0 6.08v9.1m0 6.07v9.1m0 6.07v9.1m0 6.08v9.1m0 6.07v9.1m0 6.07v9.1m0 6.08v9.1m0 6.07v9.1m0 6.07v9.1m0 6.07v9.1m0 6.07v9.12m0 6.07v9.1m0 6.06v9.1m0 6.08v9.1m0 6.07v9.1m0 6.08v9.1m0 6.08v9.1m0 6.07v9.1m0 6.07v9.1m0 6.08v9.1m0 6.07v9.1m0 6.08v9.1m0 6.07v9.1m0 6.07v9.1m0 6.08v4.55l-.07.94-.22.9-.35.88-.5.8-.6.72-.72.6-.8.5-.88.37-.9.23-.95.07h-4.48m-5.98 0h-8.96m-5.98 0h-8.96m-5.98 0h-8.96m-5.98 0h-8.96m-5.98 0h-8.96m-5.98 0h-8.96m-5.98 0h-8.96m-5.98 0H1300m-5.98 0h-8.96m-5.98 0h-8.96m-5.98 0h-8.96m-5.98 0h-8.96m-5.98 0h-8.96m-5.98 0h-8.96m-5.98 0h-8.96m-5.98 0h-8.96m-5.98 0h-8.96m-5.98 0h-8.96m-5.98 0h-8.96m-5.98 0h-8.96m-5.98 0h-8.96m-5.98 0h-8.96m-5.98 0h-8.96m-5.98 0h-8.96m-5.98 0h-8.96m-5.98 0h-8.96m-5.98 0h-4.48" stroke="#008a0e" stroke-width="3" fill="none"/><path d="M1489.22 202.22h-3.04v-3h.04z" stroke="#008a0e" stroke-width=".05" fill="#008a0e"/><path d="M1004.85 804.5l14.27-4.63v9.26z" stroke="#008a0e" stroke-width="3" fill="#008a0e"/><path d="M782.98 307.68c6 5.16 9.02 12.36 9.02 21.24 0 7.68-2.5 14.52-7.5 20.28-4.47 5.28-11.44 10.08-20.72 14.4v18.36c0 1.56-1.22 2.76-2.76 2.76H747.9c-1.47 0-2.68-1.2-2.75-2.64l-1.47-25.56c0-1.08.58-2.16 1.54-2.64l7.36-3.6c6.6-3.24 11.4-6.48 14.27-9.72 2.62-2.88 3.97-6.24 3.97-9.96 0-3.96-1.16-6.96-3.46-8.88-2.43-2.04-6.14-3.12-11.14-3.12-3.7 0-7.42.6-11.2 1.56-3.77 1.08-8.2 2.88-13.05 5.16-.83.48-1.86.36-2.7-.12-.76-.48-1.27-1.32-1.27-2.28v-12.6c0-.96.5-1.8 1.34-2.28 9.16-5.4 19.08-8.04 29.44-8.04 10.18 0 18.3 2.64 24.2 7.68zm-2.63 38.04c4.1-4.92 6.15-10.32 6.15-16.8 0-7.32-2.37-12.96-7.17-17.16-4.87-4.2-11.78-6.36-20.55-6.36-8.9 0-17.34 2.28-25.28 6.48v6.72c3.65-1.56 6.98-2.76 10.05-3.6 4.23-1.2 8.5-1.8 12.67-1.8 6.34 0 11.27 1.44 14.72 4.44 3.52 3 5.38 7.32 5.38 12.96 0 5.04-1.8 9.72-5.38 13.68-3.4 3.72-8.57 7.2-15.87 10.8l-5.76 2.88 1.23 21.24h7.74v-17.28c0-1.08.64-2.04 1.6-2.52 9.35-4.08 16.2-8.76 20.48-13.68zm-25.8 47.88c3.9 0 7.1 1.2 9.55 3.72 2.43 2.52 3.7 5.64 3.7 9.48 0 3.72-1.27 6.96-3.7 9.48-2.44 2.4-5.64 3.72-9.54 3.72-3.84 0-7.04-1.32-9.54-3.72-2.43-2.52-3.64-5.76-3.64-9.48 0-3.84 1.2-6.96 3.64-9.48 2.5-2.52 5.7-3.72 9.54-3.72zm5.64 18.84c1.4-1.44 2.1-3.36 2.1-5.64 0-2.4-.7-4.2-2.1-5.64-1.42-1.44-3.27-2.16-5.64-2.16-2.37 0-4.16.72-5.57 2.16-1.48 1.44-2.12 3.24-2.12 5.64 0 2.4.64 4.2 2.1 5.64 1.42 1.44 3.2 2.16 5.58 2.16 2.37 0 4.22-.72 5.63-2.16z" stroke="#000" stroke-opacity="0" fill="#232f3d"/><path d="M728.27 324l13.34 85.66 7.55 8.66 11.16-1.04 7.24-7.96 23.07-71.12-3.05-22.85-18.45-12.47-22.2.7L729.6 309z" stroke="#000" stroke-opacity="0" fill-opacity="0"/><g><use xlink:href="#H" transform="matrix(1,0,0,1,698,429) translate(26.025 14.4)"/></g><defs><path d="M665-137c214 0 337-121 336-332v-987h193v990c-3 300-218 486-529 486-309 0-526-181-525-484v-992h190v986c-1 210 123 333 335 333" id="I"/><path d="M538-131c121 0 232-49 232-156 0-50-20-88-56-117-73-60-334-92-420-143-92-55-162-110-162-238 0-190 192-317 400-317 223 0 414 129 413 338H759c0-108-110-186-227-186-119 0-215 53-215 159 0 45 18 78 53 101 76 52 331 90 416 139 98 57 169 115 169 251C955-92 760 20 538 20c-176 0-314-68-386-174-38-55-57-115-57-179h185c6 129 116 202 258 202" id="J"/><path d="M599-131c141 0 220-65 285-146l113 88C906-50 770 20 589 20 281 21 93-214 93-545c0-223 93-397 233-485 74-48 154-72 240-72 300 2 449 218 445 537v77H278c0 197 129 357 321 357zm227-509c-3-180-88-310-260-310-170 0-264 140-282 310h542" id="K"/><path d="M663-916c-163-27-288 18-338 148V0H140v-1082h180l3 125c61-97 147-145 258-145 36 0 63 5 82 14v172" id="L"/><g id="b"><use transform="matrix(0.0065107421875,0,0,0.0065107421875,0,0)" xlink:href="#I"/><use transform="matrix(0.0065107421875,0,0,0.0065107421875,8.646265625,0)" xlink:href="#J"/><use transform="matrix(0.0065107421875,0,0,0.0065107421875,15.521609374999999,0)" xlink:href="#K"/><use transform="matrix(0.0065107421875,0,0,0.0065107421875,22.5857646484375,0)" xlink:href="#L"/><use transform="matrix(0.0065107421875,0,0,0.0065107421875,27.097708984375,0)" xlink:href="#J"/></g><filter id="a" filterUnits="objectBoundingBox" x="-.02" y="0" width="1.03" height="1.02"><feOffset result="offOut" in="SourceAlpha" dy="1"/><feGaussianBlur result="blurOut" in="offOut" stdDeviation=".75"/><feColorMatrix result="colorOut" in="blurOut" values="0 0 0 0 0 0 0 0 0 0 0 0 0 0 0 0 0 0 0.4 0"/><feBlend in="SourceGraphic" in2="colorOut"/></filter><path d="M631-137c179 0 314-70 314-231 0-71-25-127-75-166s-141-77-272-115c-165-47-285-106-360-175s-112-154-112-255c0-245 231-397 495-397 206 0 369 89 449 218 43 68 65 142 65 223H942c0-184-129-283-321-283-172 0-299 76-301 236 0 59 26 109 76 150s135 78 256 113c205 59 345 116 436 256 35 53 50 119 50 193-2 256-231 398-507 390C333 12 90-129 80-422h193c0 187 160 285 358 285" id="M"/><path d="M491 20c-241-1-355-148-355-398v-704h185v699c0 164 67 246 200 246 141 0 235-53 282-158v-787h185V0H812l-4-107C736-22 630 20 491 20" id="N"/><path d="M632-1102c291 0 422 251 422 573 0 297-141 548-419 549-131 0-235-42-310-125v521H140v-1498h169l9 120c75-93 180-140 314-140zm-53 971c207 0 290-180 290-419 0-218-92-395-292-395-112 0-196 50-252 149v517c55 99 140 148 254 148" id="O"/><path d="M584 20C278 26 81-227 91-551c10-320 175-545 491-551 308-5 503 247 494 573-9 322-175 543-492 549zm-2-970c-208 0-305 185-305 421 0 216 106 398 307 398 211 0 307-186 307-420 0-214-109-399-309-399" id="P"/><path d="M456 20C285 20 205-92 206-268v-671H9v-143h197v-262h185v262h202v143H391v671c-9 125 92 149 207 118V0c-49 13-96 20-142 20" id="Q"/><g id="c"><use transform="matrix(0.0065107421875,0,0,0.0065107421875,0,0)" xlink:href="#M"/><use transform="matrix(0.0065107421875,0,0,0.0065107421875,7.9105517578125,0)" xlink:href="#N"/><use transform="matrix(0.0065107421875,0,0,0.0065107421875,15.2611796875,0)" xlink:href="#O"/><use transform="matrix(0.0065107421875,0,0,0.0065107421875,22.7420224609375,0)" xlink:href="#O"/><use transform="matrix(0.0065107421875,0,0,0.0065107421875,30.222865234375,0)" xlink:href="#P"/><use transform="matrix(0.0065107421875,0,0,0.0065107421875,37.827412109375,0)" xlink:href="#L"/><use transform="matrix(0.0065107421875,0,0,0.0065107421875,42.664893554687495,0)" xlink:href="#Q"/></g><path d="M973-380H363L226 0H28l556-1456h168L1309 0h-197zM421-538h495l-248-681" id="R"/><path d="M520 20C244 20 95-247 95-550c0-298 151-550 427-552 127 0 227 43 301 130v-564h185V0H838l-9-116C755-25 652 20 520 20zm48-965c-210 0-288 177-288 416 0 218 87 392 286 392 117 0 203-53 257-158v-497c-55-102-140-153-255-153" id="S"/><path d="M1240-945c-141 0-250 95-250 227V0H804v-709c0-157-77-236-231-236-121 0-204 52-249 155V0H139v-1082h175l5 120c79-93 186-140 321-140 151 0 254 58 309 174 69-98 181-174 345-174 237 0 362 126 362 377V0h-185v-714c-2-159-67-231-231-231" id="T"/><path d="M341 0H156v-1082h185V0zm-91-1264c-68 0-108-42-109-105 0-62 41-107 109-107s110 44 110 107-42 105-110 105" id="U"/><path d="M589-945c-131 0-219 81-264 174V0H140v-1082h175l6 136c83-104 191-156 324-156 229 0 346 129 346 387V0H806v-716c-2-153-65-229-217-229" id="V"/><g id="e"><use transform="matrix(0.0065107421875,0,0,0.0065107421875,0,0)" xlink:href="#R"/><use transform="matrix(0.0065107421875,0,0,0.0065107421875,8.6983515625,0)" xlink:href="#S"/><use transform="matrix(0.0065107421875,0,0,0.0065107421875,16.2182587890625,0)" xlink:href="#T"/><use transform="matrix(0.0065107421875,0,0,0.0065107421875,27.905041015625,0)" xlink:href="#U"/><use transform="matrix(0.0065107421875,0,0,0.0065107421875,31.1408798828125,0)" xlink:href="#V"/></g><filter id="d" filterUnits="objectBoundingBox" x="-.04" y="-.01" width="1.07" height="1.04"><feOffset result="offOut" in="SourceAlpha" dy="1"/><feGaussianBlur result="blurOut" in="offOut" stdDeviation=".75"/><feColorMatrix result="colorOut" in="blurOut" values="0 0 0 0 0 0 0 0 0 0 0 0 0 0 0 0 0 0 0.4 0"/><feBlend in="SourceGraphic" in2="colorOut"/></filter><path d="M1222-777c17 480-206 763-650 777H169v-1456h411c408 9 627 269 642 679zm-190 4c3-312-149-522-447-525H361v1141h202c308 0 473-209 469-531v-85" id="W"/><path d="M442-501L326-380V0H141v-1536h185v929c135-169 291-317 436-475h225L566-630 1036 0H819" id="X"/><g id="f"><use transform="matrix(0.0065107421875,0,0,0.0065107421875,0,0)" xlink:href="#W"/><use transform="matrix(0.0065107421875,0,0,0.0065107421875,8.743926757812499,0)" xlink:href="#K"/><use transform="matrix(0.0065107421875,0,0,0.0065107421875,15.808082031249999,0)" xlink:href="#J"/><use transform="matrix(0.0065107421875,0,0,0.0065107421875,22.683425781249998,0)" xlink:href="#X"/><use transform="matrix(0.0065107421875,0,0,0.0065107421875,29.441576171875,0)" xlink:href="#Q"/><use transform="matrix(0.0065107421875,0,0,0.0065107421875,33.6670478515625,0)" xlink:href="#P"/><use transform="matrix(0.0065107421875,0,0,0.0065107421875,41.2715947265625,0)" xlink:href="#O"/></g><path d="M561-1102c238-4 403 126 403 351v498c0 99 13 178 38 237V0H808c-11-21-19-59-26-114C696-25 593 20 474 20c-199 0-368-130-365-320 4-251 214-359 490-356h180v-85c-1-135-86-212-229-212-115 0-232 67-233 171H131c20-205 206-316 430-320zM294-326c0 117 90 185 207 185 122 0 239-75 278-162v-222H634c-227 0-340 66-340 199" id="Y"/><g id="g"><use transform="matrix(0.0065107421875,0,0,0.0065107421875,0,0)" xlink:href="#Y"/><use transform="matrix(0.0065107421875,0,0,0.0065107421875,7.252966796875,0)" xlink:href="#V"/><use transform="matrix(0.0065107421875,0,0,0.0065107421875,14.61010546875,0)" xlink:href="#S"/></g><path d="M417-1456L893-268l476-1188h249V0h-192c-4-403 4-794 18-1179L966 0H819L342-1176c15 384 23 773 19 1176H169v-1456h248" id="Z"/><path d="M634-1102c292 0 422 254 422 573 0 298-143 547-420 549-137 0-242-48-317-145L310 0H140v-1536h185v573c75-93 178-139 309-139zm-44 965c207 0 281-175 281-413 0-224-79-395-283-395-122 0-210 57-263 170v468c57 113 145 170 265 170" id="aa"/><path d="M341 0H156v-1536h185V0" id="ab"/><g id="h"><use transform="matrix(0.0065107421875,0,0,0.0065107421875,0,0)" xlink:href="#Z"/><use transform="matrix(0.0065107421875,0,0,0.0065107421875,11.64120703125,0)" xlink:href="#P"/><use transform="matrix(0.0065107421875,0,0,0.0065107421875,19.24575390625,0)" xlink:href="#aa"/><use transform="matrix(0.0065107421875,0,0,0.0065107421875,26.7265966796875,0)" xlink:href="#U"/><use transform="matrix(0.0065107421875,0,0,0.0065107421875,29.962435546874993,0)" xlink:href="#ab"/><use transform="matrix(0.0065107421875,0,0,0.0065107421875,33.198274414062496,0)" xlink:href="#K"/></g><path fill="#3a414a" d="M205 0l-28-72H64L36 0H1l101-248h38L239 0h-34zm-38-99l-47-123c-12 45-31 82-46 123h93" id="ac"/><path fill="#3a414a" d="M210-169c-67 3-38 105-44 169h-31v-121c0-29-5-50-35-48C34-165 62-65 56 0H25l-1-190h30c1 10-1 24 2 32 10-44 99-50 107 0 11-21 27-35 58-36 85-2 47 119 55 194h-31v-121c0-29-5-49-35-48" id="ad"/><path fill="#3a414a" d="M141-36C126-15 110 5 73 4 37 3 15-17 15-53c-1-64 63-63 125-63 3-35-9-54-41-54-24 1-41 7-42 31l-33-3c5-37 33-52 76-52 45 0 72 20 72 64v82c-1 20 7 32 28 27v20c-31 9-61-2-59-35zM48-53c0 20 12 33 32 33 41-3 63-29 60-74-43 2-92-5-92 41" id="ae"/><path fill="#3a414a" d="M9 0v-24l116-142H16v-24h144v24L44-24h123V0H9" id="af"/><path fill="#3a414a" d="M100-194c62-1 85 37 85 99 1 63-27 99-86 99S16-35 15-95c0-66 28-99 85-99zM99-20c44 1 53-31 53-75 0-43-8-75-51-75s-53 32-53 75 10 74 51 75" id="ag"/><path fill="#3a414a" d="M117-194c89-4 53 116 60 194h-32v-121c0-31-8-49-39-48C34-167 62-67 57 0H25l-1-190h30c1 10-1 24 2 32 11-22 29-35 61-36" id="ah"/><g id="i"><use transform="matrix(0.06172839506172839,0,0,0.06172839506172839,0,0)" xlink:href="#ac"/><use transform="matrix(0.06172839506172839,0,0,0.06172839506172839,14.814814814814813,0)" xlink:href="#ad"/><use transform="matrix(0.06172839506172839,0,0,0.06172839506172839,33.2716049382716,0)" xlink:href="#ae"/><use transform="matrix(0.06172839506172839,0,0,0.06172839506172839,45.61728395061728,0)" xlink:href="#af"/><use transform="matrix(0.06172839506172839,0,0,0.06172839506172839,56.72839506172839,0)" xlink:href="#ag"/><use transform="matrix(0.06172839506172839,0,0,0.06172839506172839,69.07407407407408,0)" xlink:href="#ah"/></g><path fill="#3a414a" d="M212-179c-10-28-35-45-73-45-59 0-87 40-87 99 0 60 29 101 89 101 43 0 62-24 78-52l27 14C228-24 195 4 139 4 59 4 22-46 18-125c-6-104 99-153 187-111 19 9 31 26 39 46" id="ai"/><path fill="#3a414a" d="M24 0v-261h32V0H24" id="aj"/><path fill="#3a414a" d="M84 4C-5 8 30-112 23-190h32v120c0 31 7 50 39 49 72-2 45-101 50-169h31l1 190h-30c-1-10 1-25-2-33-11 22-28 36-60 37" id="ak"/><path fill="#3a414a" d="M85-194c31 0 48 13 60 33l-1-100h32l1 261h-30c-2-10 0-23-3-31C134-8 116 4 85 4 32 4 16-35 15-94c0-66 23-100 70-100zm9 24c-40 0-46 34-46 75 0 40 6 74 45 74 42 0 51-32 51-76 0-42-9-74-50-73" id="al"/><path fill="#3a414a" d="M63-220v92h138v28H63V0H30v-248h175v28H63" id="am"/><path fill="#3a414a" d="M114-163C36-179 61-72 57 0H25l-1-190h30c1 12-1 29 2 39 6-27 23-49 58-41v29" id="an"/><path fill="#3a414a" d="M59-47c-2 24 18 29 38 22v24C64 9 27 4 27-40v-127H5v-23h24l9-43h21v43h35v23H59v120" id="ao"/><g id="j"><use transform="matrix(0.06172839506172839,0,0,0.06172839506172839,0,0)" xlink:href="#ai"/><use transform="matrix(0.06172839506172839,0,0,0.06172839506172839,15.987654320987653,0)" xlink:href="#aj"/><use transform="matrix(0.06172839506172839,0,0,0.06172839506172839,20.864197530864196,0)" xlink:href="#ag"/><use transform="matrix(0.06172839506172839,0,0,0.06172839506172839,33.20987654320987,0)" xlink:href="#ak"/><use transform="matrix(0.06172839506172839,0,0,0.06172839506172839,45.55555555555555,0)" xlink:href="#al"/><use transform="matrix(0.06172839506172839,0,0,0.06172839506172839,57.90123456790123,0)" xlink:href="#am"/><use transform="matrix(0.06172839506172839,0,0,0.06172839506172839,71.41975308641975,0)" xlink:href="#an"/><use transform="matrix(0.06172839506172839,0,0,0.06172839506172839,78.76543209876543,0)" xlink:href="#ag"/><use transform="matrix(0.06172839506172839,0,0,0.06172839506172839,91.11111111111111,0)" xlink:href="#ah"/><use transform="matrix(0.06172839506172839,0,0,0.06172839506172839,103.4567901234568,0)" xlink:href="#ao"/></g><path fill="#3a414a" d="M194 0L95-120 63-95V0H30v-248h33v124l119-124h40L117-140 236 0h-42" id="ap"/><path fill="#3a414a" d="M101-234c-31-9-42 10-38 44h38v23H63V0H32v-167H5v-23h27c-7-52 17-82 69-68v24" id="aq"/><path fill="#3a414a" d="M143 0L79-87 56-68V0H24v-261h32v163l83-92h37l-77 82L181 0h-38" id="ar"/><path fill="#3a414a" d="M0 4l72-265h28L28 4H0" id="as"/><path fill="#3a414a" d="M240 0l2-218c-23 76-54 145-80 218h-23L58-218 59 0H30v-248h44l77 211c21-75 51-140 76-211h43V0h-30" id="at"/><path fill="#3a414a" d="M140-251c81 0 123 46 123 126C263-53 228-8 163 1c7 30 30 48 69 40v23c-55 16-95-15-103-61C56-3 17-48 17-125c0-80 42-126 123-126zm0 227c63 0 89-41 89-101s-29-99-89-99c-61 0-89 39-89 99S79-25 140-24" id="au"/><g id="k"><use transform="matrix(0.06172839506172839,0,0,0.06172839506172839,0,0)" xlink:href="#ap"/><use transform="matrix(0.06172839506172839,0,0,0.06172839506172839,14.814814814814813,0)" xlink:href="#ae"/><use transform="matrix(0.06172839506172839,0,0,0.06172839506172839,27.160493827160494,0)" xlink:href="#aq"/><use transform="matrix(0.06172839506172839,0,0,0.06172839506172839,33.333333333333336,0)" xlink:href="#ar"/><use transform="matrix(0.06172839506172839,0,0,0.06172839506172839,44.44444444444444,0)" xlink:href="#ae"/><use transform="matrix(0.06172839506172839,0,0,0.06172839506172839,56.79012345679012,0)" xlink:href="#as"/><use transform="matrix(0.06172839506172839,0,0,0.06172839506172839,62.96296296296296,0)" xlink:href="#at"/><use transform="matrix(0.06172839506172839,0,0,0.06172839506172839,81.41975308641975,0)" xlink:href="#au"/></g><path d="M205 0l-28-72H64L36 0H1l101-248h38L239 0h-34zm-38-99l-47-123c-12 45-31 82-46 123h93" id="av"/><path d="M84 4C-5 8 30-112 23-190h32v120c0 31 7 50 39 49 72-2 45-101 50-169h31l1 190h-30c-1-10 1-25-2-33-11 22-28 36-60 37" id="aw"/><path d="M114-163C36-179 61-72 57 0H25l-1-190h30c1 12-1 29 2 39 6-27 23-49 58-41v29" id="ax"/><path d="M100-194c62-1 85 37 85 99 1 63-27 99-86 99S16-35 15-95c0-66 28-99 85-99zM99-20c44 1 53-31 53-75 0-43-8-75-51-75s-53 32-53 75 10 74 51 75" id="ay"/><path d="M141-36C126-15 110 5 73 4 37 3 15-17 15-53c-1-64 63-63 125-63 3-35-9-54-41-54-24 1-41 7-42 31l-33-3c5-37 33-52 76-52 45 0 72 20 72 64v82c-1 20 7 32 28 27v20c-31 9-61-2-59-35zM48-53c0 20 12 33 32 33 41-3 63-29 60-74-43 2-92-5-92 41" id="az"/><g id="l"><use transform="matrix(0.05,0,0,0.05,0,0)" xlink:href="#av"/><use transform="matrix(0.05,0,0,0.05,12,0)" xlink:href="#aw"/><use transform="matrix(0.05,0,0,0.05,22,0)" xlink:href="#ax"/><use transform="matrix(0.05,0,0,0.05,27.950000000000003,0)" xlink:href="#ay"/><use transform="matrix(0.05,0,0,0.05,37.95,0)" xlink:href="#ax"/><use transform="matrix(0.05,0,0,0.05,43.900000000000006,0)" xlink:href="#az"/></g><path d="M210-169c-67 3-38 105-44 169h-31v-121c0-29-5-50-35-48C34-165 62-65 56 0H25l-1-190h30c1 10-1 24 2 32 10-44 99-50 107 0 11-21 27-35 58-36 85-2 47 119 55 194h-31v-121c0-29-5-49-35-48" id="aA"/><path d="M9 0v-24l116-142H16v-24h144v24L44-24h123V0H9" id="aB"/><path d="M117-194c89-4 53 116 60 194h-32v-121c0-31-8-49-39-48C34-167 62-67 57 0H25l-1-190h30c1 10-1 24 2 32 11-22 29-35 61-36" id="aC"/><g id="m"><use transform="matrix(0.05,0,0,0.05,0,0)" xlink:href="#av"/><use transform="matrix(0.05,0,0,0.05,12,0)" xlink:href="#aA"/><use transform="matrix(0.05,0,0,0.05,26.950000000000003,0)" xlink:href="#az"/><use transform="matrix(0.05,0,0,0.05,36.95,0)" xlink:href="#aB"/><use transform="matrix(0.05,0,0,0.05,45.95,0)" xlink:href="#ay"/><use transform="matrix(0.05,0,0,0.05,55.95,0)" xlink:href="#aC"/></g><path d="M233-177c-1 41-23 64-60 70L243 0h-38l-65-103H63V0H30v-248c88 3 205-21 203 71zM63-129c60-2 137 13 137-47 0-61-80-42-137-45v92" id="aD"/><path d="M30-248c118-7 216 8 213 122C240-48 200 0 122 0H30v-248zM63-27c89 8 146-16 146-99s-60-101-146-95v194" id="aE"/><path d="M185-189c-5-48-123-54-124 2 14 75 158 14 163 119 3 78-121 87-175 55-17-10-28-26-33-46l33-7c5 56 141 63 141-1 0-78-155-14-162-118-5-82 145-84 179-34 5 7 8 16 11 25" id="aF"/><g id="n"><use transform="matrix(0.05,0,0,0.05,0,0)" xlink:href="#aD"/><use transform="matrix(0.05,0,0,0.05,12.950000000000001,0)" xlink:href="#aE"/><use transform="matrix(0.05,0,0,0.05,25.900000000000002,0)" xlink:href="#aF"/></g><path d="M33 0v-248h34V0H33" id="aG"/><path d="M135-143c-3-34-86-38-87 0 15 53 115 12 119 90S17 21 10-45l28-5c4 36 97 45 98 0-10-56-113-15-118-90-4-57 82-63 122-42 12 7 21 19 24 35" id="aH"/><path d="M59-47c-2 24 18 29 38 22v24C64 9 27 4 27-40v-127H5v-23h24l9-43h21v43h35v23H59v120" id="aI"/><path d="M96-169c-40 0-48 33-48 73s9 75 48 75c24 0 41-14 43-38l32 2c-6 37-31 61-74 61-59 0-76-41-82-99-10-93 101-131 147-64 4 7 5 14 7 22l-32 3c-4-21-16-35-41-35" id="aJ"/><path d="M100-194c63 0 86 42 84 106H49c0 40 14 67 53 68 26 1 43-12 49-29l28 8c-11 28-37 45-77 45C44 4 14-33 15-96c1-61 26-98 85-98zm52 81c6-60-76-77-97-28-3 7-6 17-6 28h103" id="aK"/><g id="o"><use transform="matrix(0.05,0,0,0.05,0,0)" xlink:href="#aG"/><use transform="matrix(0.05,0,0,0.05,5,0)" xlink:href="#aC"/><use transform="matrix(0.05,0,0,0.05,15,0)" xlink:href="#aH"/><use transform="matrix(0.05,0,0,0.05,24,0)" xlink:href="#aI"/><use transform="matrix(0.05,0,0,0.05,29,0)" xlink:href="#az"/><use transform="matrix(0.05,0,0,0.05,39,0)" xlink:href="#aC"/><use transform="matrix(0.05,0,0,0.05,49,0)" xlink:href="#aJ"/><use transform="matrix(0.05,0,0,0.05,58,0)" xlink:href="#aK"/></g><path fill="#3a414a" d="M266 0h-40l-56-210L115 0H75L2-248h35L96-30l15-64 43-154h32l59 218 59-218h35" id="aL"/><path fill="#3a414a" d="M185-189c-5-48-123-54-124 2 14 75 158 14 163 119 3 78-121 87-175 55-17-10-28-26-33-46l33-7c5 56 141 63 141-1 0-78-155-14-162-118-5-82 145-84 179-34 5 7 8 16 11 25" id="aM"/><g id="p"><use transform="matrix(0.06172839506172839,0,0,0.06172839506172839,0,0)" xlink:href="#ac"/><use transform="matrix(0.06172839506172839,0,0,0.06172839506172839,14.012345679012345,0)" xlink:href="#aL"/><use transform="matrix(0.06172839506172839,0,0,0.06172839506172839,34.938271604938265,0)" xlink:href="#aM"/></g><path fill="#3a414a" d="M115-194c55 1 70 41 70 98S169 2 115 4C84 4 66-9 55-30l1 105H24l-1-265h31l2 30c10-21 28-34 59-34zm-8 174c40 0 45-34 45-75s-6-73-45-74c-42 0-51 32-51 76 0 43 10 73 51 73" id="aN"/><path fill="#3a414a" d="M24-231v-30h32v30H24zM24 0v-190h32V0H24" id="aO"/><path fill="#3a414a" d="M179-190L93 31C79 59 56 82 12 73V49c39 6 53-20 64-50L1-190h34L92-34l54-156h33" id="aP"/><g id="q"><use transform="matrix(0.06172839506172839,0,0,0.06172839506172839,0,0)" xlink:href="#ac"/><use transform="matrix(0.06172839506172839,0,0,0.06172839506172839,14.814814814814813,0)" xlink:href="#ad"/><use transform="matrix(0.06172839506172839,0,0,0.06172839506172839,33.2716049382716,0)" xlink:href="#aN"/><use transform="matrix(0.06172839506172839,0,0,0.06172839506172839,45.61728395061728,0)" xlink:href="#aj"/><use transform="matrix(0.06172839506172839,0,0,0.06172839506172839,50.49382716049382,0)" xlink:href="#aO"/><use transform="matrix(0.06172839506172839,0,0,0.06172839506172839,55.37037037037037,0)" xlink:href="#aq"/><use transform="matrix(0.06172839506172839,0,0,0.06172839506172839,61.54320987654321,0)" xlink:href="#aP"/></g><path fill="#3a414a" d="M30 0v-248h33v221h125V0H30" id="aQ"/><path fill="#3a414a" d="M115-194c53 0 69 39 70 98 0 66-23 100-70 100C84 3 66-7 56-30L54 0H23l1-261h32v101c10-23 28-34 59-34zm-8 174c40 0 45-34 45-75 0-40-5-75-45-74-42 0-51 32-51 76 0 43 10 73 51 73" id="aR"/><g id="r"><use transform="matrix(0.06172839506172839,0,0,0.06172839506172839,0,0)" xlink:href="#aQ"/><use transform="matrix(0.06172839506172839,0,0,0.06172839506172839,12.345679012345679,0)" xlink:href="#ae"/><use transform="matrix(0.06172839506172839,0,0,0.06172839506172839,24.691358024691358,0)" xlink:href="#ad"/><use transform="matrix(0.06172839506172839,0,0,0.06172839506172839,43.148148148148145,0)" xlink:href="#aR"/><use transform="matrix(0.06172839506172839,0,0,0.06172839506172839,55.49382716049382,0)" xlink:href="#al"/><use transform="matrix(0.06172839506172839,0,0,0.06172839506172839,67.8395061728395,0)" xlink:href="#ae"/></g><path fill="#3a414a" d="M96-169c-40 0-48 33-48 73s9 75 48 75c24 0 41-14 43-38l32 2c-6 37-31 61-74 61-59 0-76-41-82-99-10-93 101-131 147-64 4 7 5 14 7 22l-32 3c-4-21-16-35-41-35" id="aS"/><g id="s"><use transform="matrix(0.06172839506172839,0,0,0.06172839506172839,0,0)" xlink:href="#am"/><use transform="matrix(0.06172839506172839,0,0,0.06172839506172839,13.518518518518517,0)" xlink:href="#ak"/><use transform="matrix(0.06172839506172839,0,0,0.06172839506172839,25.864197530864196,0)" xlink:href="#ah"/><use transform="matrix(0.06172839506172839,0,0,0.06172839506172839,38.20987654320987,0)" xlink:href="#aS"/><use transform="matrix(0.06172839506172839,0,0,0.06172839506172839,49.32098765432099,0)" xlink:href="#ao"/><use transform="matrix(0.06172839506172839,0,0,0.06172839506172839,55.49382716049383,0)" xlink:href="#aO"/><use transform="matrix(0.06172839506172839,0,0,0.06172839506172839,60.370370370370374,0)" xlink:href="#ag"/><use transform="matrix(0.06172839506172839,0,0,0.06172839506172839,72.71604938271605,0)" xlink:href="#ah"/></g><path fill="#3a414a" d="M126-127c33 6 58 20 58 59 0 88-139 92-164 29-3-8-5-16-6-25l32-3c6 27 21 44 54 44 32 0 52-15 52-46 0-38-36-46-79-43v-28c39 1 72-4 72-42 0-27-17-43-46-43-28 0-47 15-49 41l-32-3c6-42 35-63 81-64 48-1 79 21 79 65 0 36-21 52-52 59" id="aT"/><g id="t"><use transform="matrix(0.06172839506172839,0,0,0.06172839506172839,0,0)" xlink:href="#aM"/><use transform="matrix(0.06172839506172839,0,0,0.06172839506172839,14.814814814814813,0)" xlink:href="#aT"/></g><path d="M143 4C61 4 22-44 18-125c-5-107 100-154 193-111 17 8 29 25 37 43l-32 9c-13-25-37-40-76-40-61 0-88 39-88 99 0 61 29 100 91 101 35 0 62-11 79-27v-45h-74v-28h105v86C228-13 192 4 143 4" id="aU"/><path d="M24-231v-30h32v30H24zM24 0v-190h32V0H24" id="aV"/><g id="u"><use transform="matrix(0.05,0,0,0.05,0,0)" xlink:href="#aU"/><use transform="matrix(0.05,0,0,0.05,14,0)" xlink:href="#aV"/><use transform="matrix(0.05,0,0,0.05,17.95,0)" xlink:href="#aI"/></g><path d="M115-194c55 1 70 41 70 98S169 2 115 4C84 4 66-9 55-30l1 105H24l-1-265h31l2 30c10-21 28-34 59-34zm-8 174c40 0 45-34 45-75s-6-73-45-74c-42 0-51 32-51 76 0 43 10 73 51 73" id="aW"/><path d="M179-190L93 31C79 59 56 82 12 73V49c39 6 53-20 64-50L1-190h34L92-34l54-156h33" id="aX"/><g id="v"><use transform="matrix(0.05,0,0,0.05,0,0)" xlink:href="#ax"/><use transform="matrix(0.05,0,0,0.05,5.95,0)" xlink:href="#aK"/><use transform="matrix(0.05,0,0,0.05,15.949999999999998,0)" xlink:href="#aW"/><use transform="matrix(0.05,0,0,0.05,25.950000000000003,0)" xlink:href="#ay"/><use transform="matrix(0.05,0,0,0.05,35.95,0)" xlink:href="#aH"/><use transform="matrix(0.05,0,0,0.05,44.95,0)" xlink:href="#aV"/><use transform="matrix(0.05,0,0,0.05,48.900000000000006,0)" xlink:href="#aI"/><use transform="matrix(0.05,0,0,0.05,53.900000000000006,0)" xlink:href="#ay"/><use transform="matrix(0.05,0,0,0.05,63.900000000000006,0)" xlink:href="#ax"/><use transform="matrix(0.05,0,0,0.05,69.85000000000001,0)" xlink:href="#aX"/></g><path d="M197 0v-115H63V0H30v-248h33v105h134v-105h34V0h-34" id="aY"/><path d="M24 0v-261h32V0H24" id="aZ"/><path d="M106-169C34-169 62-67 57 0H25v-261h32l-1 103c12-21 28-36 61-36 89 0 53 116 60 194h-32v-121c2-32-8-49-39-48" id="ba"/><g id="w"><use transform="matrix(0.05,0,0,0.05,0,0)" xlink:href="#aY"/><use transform="matrix(0.05,0,0,0.05,12.950000000000001,0)" xlink:href="#aK"/><use transform="matrix(0.05,0,0,0.05,22.950000000000003,0)" xlink:href="#az"/><use transform="matrix(0.05,0,0,0.05,32.95,0)" xlink:href="#aZ"/><use transform="matrix(0.05,0,0,0.05,36.900000000000006,0)" xlink:href="#aI"/><use transform="matrix(0.05,0,0,0.05,41.900000000000006,0)" xlink:href="#ba"/></g><path d="M177-190C167-65 218 103 67 71c-23-6-38-20-44-43l32-5c15 47 100 32 89-28v-30C133-14 115 1 83 1 29 1 15-40 15-95c0-56 16-97 71-98 29-1 48 16 59 35 1-10 0-23 2-32h30zM94-22c36 0 50-32 50-73 0-42-14-75-50-75-39 0-46 34-46 75s6 73 46 73" id="bb"/><g id="x"><use transform="matrix(0.05,0,0,0.05,0,0)" xlink:href="#aA"/><use transform="matrix(0.05,0,0,0.05,14.950000000000001,0)" xlink:href="#ay"/><use transform="matrix(0.05,0,0,0.05,24.950000000000003,0)" xlink:href="#aC"/><use transform="matrix(0.05,0,0,0.05,34.95,0)" xlink:href="#aV"/><use transform="matrix(0.05,0,0,0.05,38.900000000000006,0)" xlink:href="#aI"/><use transform="matrix(0.05,0,0,0.05,43.900000000000006,0)" xlink:href="#ay"/><use transform="matrix(0.05,0,0,0.05,53.900000000000006,0)" xlink:href="#ax"/><use transform="matrix(0.05,0,0,0.05,59.85,0)" xlink:href="#aV"/><use transform="matrix(0.05,0,0,0.05,63.80000000000001,0)" xlink:href="#aC"/><use transform="matrix(0.05,0,0,0.05,73.80000000000001,0)" xlink:href="#bb"/></g><path d="M115-194c53 0 69 39 70 98 0 66-23 100-70 100C84 3 66-7 56-30L54 0H23l1-261h32v101c10-23 28-34 59-34zm-8 174c40 0 45-34 45-75 0-40-5-75-45-74-42 0-51 32-51 76 0 43 10 73 51 73" id="bc"/><g id="y"><use transform="matrix(0.05,0,0,0.05,0,0)" xlink:href="#bc"/><use transform="matrix(0.05,0,0,0.05,10,0)" xlink:href="#az"/><use transform="matrix(0.05,0,0,0.05,20,0)" xlink:href="#aZ"/><use transform="matrix(0.05,0,0,0.05,23.95,0)" xlink:href="#az"/><use transform="matrix(0.05,0,0,0.05,33.95,0)" xlink:href="#aC"/><use transform="matrix(0.05,0,0,0.05,43.95,0)" xlink:href="#aJ"/><use transform="matrix(0.05,0,0,0.05,52.95,0)" xlink:href="#aV"/><use transform="matrix(0.05,0,0,0.05,56.900000000000006,0)" xlink:href="#aC"/><use transform="matrix(0.05,0,0,0.05,66.9,0)" xlink:href="#bb"/></g><path d="M108 0H70L1-190h34L89-25l56-165h34" id="bd"/><g id="z"><use transform="matrix(0.05,0,0,0.05,0,0)" xlink:href="#aH"/><use transform="matrix(0.05,0,0,0.05,9,0)" xlink:href="#aK"/><use transform="matrix(0.05,0,0,0.05,19,0)" xlink:href="#ax"/><use transform="matrix(0.05,0,0,0.05,24.95,0)" xlink:href="#bd"/><use transform="matrix(0.05,0,0,0.05,33.95,0)" xlink:href="#aV"/><use transform="matrix(0.05,0,0,0.05,37.900000000000006,0)" xlink:href="#aJ"/><use transform="matrix(0.05,0,0,0.05,46.900000000000006,0)" xlink:href="#aK"/></g><path d="M141 0L90-78 38 0H4l68-98-65-92h35l48 74 47-74h35l-64 92 68 98h-35" id="be"/><g id="A"><use transform="matrix(0.05,0,0,0.05,0,0)" xlink:href="#aK"/><use transform="matrix(0.05,0,0,0.05,10,0)" xlink:href="#be"/><use transform="matrix(0.05,0,0,0.05,19,0)" xlink:href="#aI"/><use transform="matrix(0.05,0,0,0.05,24,0)" xlink:href="#aK"/><use transform="matrix(0.05,0,0,0.05,34,0)" xlink:href="#ax"/><use transform="matrix(0.05,0,0,0.05,39.95,0)" xlink:href="#aC"/><use transform="matrix(0.05,0,0,0.05,49.95,0)" xlink:href="#az"/><use transform="matrix(0.05,0,0,0.05,59.95,0)" xlink:href="#aZ"/></g><path d="M85-194c31 0 48 13 60 33l-1-100h32l1 261h-30c-2-10 0-23-3-31C134-8 116 4 85 4 32 4 16-35 15-94c0-66 23-100 70-100zm9 24c-40 0-46 34-46 75 0 40 6 74 45 74 42 0 51-32 51-76 0-42-9-74-50-73" id="bf"/><g id="B"><use transform="matrix(0.05,0,0,0.05,0,0)" xlink:href="#bf"/><use transform="matrix(0.05,0,0,0.05,10,0)" xlink:href="#aK"/><use transform="matrix(0.05,0,0,0.05,20,0)" xlink:href="#bd"/><use transform="matrix(0.05,0,0,0.05,29,0)" xlink:href="#aV"/><use transform="matrix(0.05,0,0,0.05,32.95,0)" xlink:href="#aJ"/><use transform="matrix(0.05,0,0,0.05,41.95,0)" xlink:href="#aK"/><use transform="matrix(0.05,0,0,0.05,51.95,0)" xlink:href="#aH"/></g><path fill="#3a414a" d="M232-93c-1 65-40 97-104 97C67 4 28-28 28-90v-158h33c8 89-33 224 67 224 102 0 64-133 71-224h33v155" id="bg"/><path fill="#3a414a" d="M135-143c-3-34-86-38-87 0 15 53 115 12 119 90S17 21 10-45l28-5c4 36 97 45 98 0-10-56-113-15-118-90-4-57 82-63 122-42 12 7 21 19 24 35" id="bh"/><path fill="#3a414a" d="M100-194c63 0 86 42 84 106H49c0 40 14 67 53 68 26 1 43-12 49-29l28 8c-11 28-37 45-77 45C44 4 14-33 15-96c1-61 26-98 85-98zm52 81c6-60-76-77-97-28-3 7-6 17-6 28h103" id="bi"/><g id="C"><use transform="matrix(0.06172839506172839,0,0,0.06172839506172839,0,0)" xlink:href="#bg"/><use transform="matrix(0.06172839506172839,0,0,0.06172839506172839,15.987654320987653,0)" xlink:href="#bh"/><use transform="matrix(0.06172839506172839,0,0,0.06172839506172839,27.098765432098766,0)" xlink:href="#bi"/><use transform="matrix(0.06172839506172839,0,0,0.06172839506172839,39.44444444444444,0)" xlink:href="#an"/><use transform="matrix(0.06172839506172839,0,0,0.06172839506172839,46.79012345679012,0)" xlink:href="#bh"/></g><g id="D"><use transform="matrix(0.06172839506172839,0,0,0.06172839506172839,0,0)" xlink:href="#am"/><use transform="matrix(0.06172839506172839,0,0,0.06172839506172839,13.518518518518517,0)" xlink:href="#an"/><use transform="matrix(0.06172839506172839,0,0,0.06172839506172839,20.864197530864196,0)" xlink:href="#ag"/><use transform="matrix(0.06172839506172839,0,0,0.06172839506172839,33.20987654320987,0)" xlink:href="#ah"/><use transform="matrix(0.06172839506172839,0,0,0.06172839506172839,45.55555555555555,0)" xlink:href="#ao"/><use transform="matrix(0.06172839506172839,0,0,0.06172839506172839,51.72839506172839,0)" xlink:href="#bi"/><use transform="matrix(0.06172839506172839,0,0,0.06172839506172839,64.07407407407408,0)" xlink:href="#ah"/><use transform="matrix(0.06172839506172839,0,0,0.06172839506172839,76.41975308641976,0)" xlink:href="#al"/></g><path fill="#3a414a" d="M177-190C167-65 218 103 67 71c-23-6-38-20-44-43l32-5c15 47 100 32 89-28v-30C133-14 115 1 83 1 29 1 15-40 15-95c0-56 16-97 71-98 29-1 48 16 59 35 1-10 0-23 2-32h30zM94-22c36 0 50-32 50-73 0-42-14-75-50-75-39 0-46 34-46 75s6 73 46 73" id="bj"/><g id="E"><use transform="matrix(0.06172839506172839,0,0,0.06172839506172839,0,0)" xlink:href="#bj"/><use transform="matrix(0.06172839506172839,0,0,0.06172839506172839,12.345679012345679,0)" xlink:href="#an"/><use transform="matrix(0.06172839506172839,0,0,0.06172839506172839,19.691358024691358,0)" xlink:href="#aO"/><use transform="matrix(0.06172839506172839,0,0,0.06172839506172839,24.5679012345679,0)" xlink:href="#al"/></g><g id="F"><use transform="matrix(0.06172839506172839,0,0,0.06172839506172839,0,0)" xlink:href="#aR"/><use transform="matrix(0.06172839506172839,0,0,0.06172839506172839,12.345679012345679,0)" xlink:href="#ae"/><use transform="matrix(0.06172839506172839,0,0,0.06172839506172839,24.691358024691358,0)" xlink:href="#aj"/><use transform="matrix(0.06172839506172839,0,0,0.06172839506172839,29.5679012345679,0)" xlink:href="#ae"/><use transform="matrix(0.06172839506172839,0,0,0.06172839506172839,41.913580246913575,0)" xlink:href="#ah"/><use transform="matrix(0.06172839506172839,0,0,0.06172839506172839,54.25925925925925,0)" xlink:href="#aS"/><use transform="matrix(0.06172839506172839,0,0,0.06172839506172839,65.37037037037037,0)" xlink:href="#aO"/><use transform="matrix(0.06172839506172839,0,0,0.06172839506172839,70.24691358024691,0)" xlink:href="#ah"/><use transform="matrix(0.06172839506172839,0,0,0.06172839506172839,82.5925925925926,0)" xlink:href="#bj"/></g><path fill="#3a414a" d="M160-131c35 5 61 23 61 61C221 17 115-2 30 0v-248c76 3 177-17 177 60 0 33-19 50-47 57zm-97-11c50-1 110 9 110-42 0-47-63-36-110-37v79zm0 115c55-2 124 14 124-45 0-56-70-42-124-44v89" id="bk"/><g id="G"><use transform="matrix(0.06172839506172839,0,0,0.06172839506172839,0,0)" xlink:href="#bk"/><use transform="matrix(0.06172839506172839,0,0,0.06172839506172839,14.814814814814813,0)" xlink:href="#ae"/><use transform="matrix(0.06172839506172839,0,0,0.06172839506172839,27.160493827160494,0)" xlink:href="#aS"/><use transform="matrix(0.06172839506172839,0,0,0.06172839506172839,38.27160493827161,0)" xlink:href="#ar"/><use transform="matrix(0.06172839506172839,0,0,0.06172839506172839,49.38271604938272,0)" xlink:href="#bi"/><use transform="matrix(0.06172839506172839,0,0,0.06172839506172839,61.7283950617284,0)" xlink:href="#ah"/><use transform="matrix(0.06172839506172839,0,0,0.06172839506172839,74.07407407407408,0)" xlink:href="#al"/></g><path d="M140-251c81 0 123 46 123 126C263-53 228-8 163 1c7 30 30 48 69 40v23c-55 16-95-15-103-61C56-3 17-48 17-125c0-80 42-126 123-126zm0 227c63 0 89-41 89-101s-29-99-89-99c-61 0-89 39-89 99S79-25 140-24" id="bl"/><g id="H"><use transform="matrix(0.05,0,0,0.05,0,0)" xlink:href="#bl"/><use transform="matrix(0.05,0,0,0.05,14,0)" xlink:href="#aw"/><use transform="matrix(0.05,0,0,0.05,24,0)" xlink:href="#aK"/><use transform="matrix(0.05,0,0,0.05,34,0)" xlink:href="#aH"/><use transform="matrix(0.05,0,0,0.05,43,0)" xlink:href="#aI"/><use transform="matrix(0.05,0,0,0.05,48,0)" xlink:href="#aV"/><use transform="matrix(0.05,0,0,0.05,51.95,0)" xlink:href="#ay"/><use transform="matrix(0.05,0,0,0.05,61.95,0)" xlink:href="#aC"/></g></defs></g></svg>